<svg width="10" height="16" viewBox="0 0 10 16" fill="none" xmlns="http://www.w3.org/2000/svg">
<path d="M3.44063 5.49999V11.1191C3.44712 11.53 3.6149 11.9219 3.90777 12.2102C4.20064 12.4985 4.59511 12.66 5.00606 12.66C5.417 12.66 5.81147 12.4985 6.10434 12.2102C6.39721 11.9219 6.565 11.53 6.57149 11.1191L6.57656 3.7539C6.58083 3.4027 6.51533 3.05415 6.38388 2.72845C6.25243 2.40275 6.05764 2.10638 5.8108 1.85653C5.56396 1.60667 5.26997 1.4083 4.94589 1.2729C4.62181 1.13751 4.27408 1.0678 3.92285 1.0678C3.57163 1.0678 3.2239 1.13751 2.89982 1.2729C2.57574 1.4083 2.28175 1.60667 2.03491 1.85653C1.78807 2.10638 1.59328 2.40275 1.46183 2.72845C1.33038 3.05415 1.26488 3.4027 1.26914 3.7539V11.1687C1.26199 11.6632 1.35319 12.1541 1.53746 12.613C1.72172 13.0718 1.99536 13.4895 2.34248 13.8417C2.68959 14.1939 3.10326 14.4735 3.55941 14.6644C4.01557 14.8553 4.50513 14.9536 4.99961 14.9536C5.4941 14.9536 5.98365 14.8553 6.43981 14.6644C6.89597 14.4735 7.30963 14.1939 7.65675 13.8417C8.00386 13.4895 8.27751 13.0718 8.46177 12.613C8.64603 12.1541 8.73724 11.6632 8.73008 11.1687V4.23984" stroke="#828282" stroke-width="1.2" stroke-miterlimit="10" stroke-linecap="round"/>
</svg>
