<svg width="22" height="12" viewBox="0 0 22 12" fill="none" xmlns="http://www.w3.org/2000/svg">
<path d="M8.75 10.5H5.75C4.55653 10.5 3.41193 10.0259 2.56802 9.18198C1.72411 8.33807 1.25 7.19347 1.25 6C1.25 4.80653 1.72411 3.66193 2.56802 2.81802C3.41193 1.97411 4.55653 1.5 5.75 1.5H8.75M13.25 1.5H16.25C17.4435 1.5 18.5881 1.97411 19.432 2.81802C20.2759 3.66193 20.75 4.80653 20.75 6C20.75 7.19347 20.2759 8.33807 19.432 9.18198C18.5881 10.0259 17.4435 10.5 16.25 10.5H13.25M6.65422 6H15.4395" stroke="#2F80ED" stroke-width="1.2" stroke-linecap="round" stroke-linejoin="round"/>
</svg>
