<svg width="12" height="12" viewBox="0 0 12 12" fill="none" xmlns="http://www.w3.org/2000/svg">
<path d="M10.6875 4.49998L7.03125 4.21873L7.57031 2.12342C7.71094 1.49998 7.55203 1.14209 7.04367 0.984354L6.23063 0.753495C6.21138 0.748395 6.19102 0.749553 6.17248 0.7568C6.15393 0.764048 6.13818 0.777009 6.1275 0.793807L3.10406 5.53615C3.08729 5.56342 3.06382 5.58595 3.03588 5.60158C3.00794 5.61721 2.97647 5.62543 2.94445 5.62545H0.375V10.5H3.13148C3.25241 10.5 3.37254 10.5194 3.48727 10.5576L5.27555 11.1537C5.46674 11.2174 5.66697 11.2499 5.86852 11.25H10.0387C10.4841 11.25 10.777 10.9331 10.8645 10.4962L11.625 7.16201V5.43748C11.625 4.92045 11.2031 4.54685 10.6875 4.49998Z" fill="#2F80ED"/>
</svg>
