<svg width="20" height="18" viewBox="0 0 20 18" fill="none" xmlns="http://www.w3.org/2000/svg">
<path d="M14.6875 4.625C14.5344 6.69023 12.9688 8.375 11.25 8.375C9.53125 8.375 7.96289 6.69063 7.8125 4.625C7.65625 2.47656 9.17969 0.875 11.25 0.875C13.3203 0.875 14.8438 2.51562 14.6875 4.625Z" stroke="#828282" stroke-width="1.2" stroke-linecap="round" stroke-linejoin="round"/>
<path d="M11.25 10.875C7.85157 10.875 4.40235 12.75 3.76406 16.2891C3.68594 16.7156 3.92852 17.125 4.37539 17.125H18.125C18.5719 17.125 18.8133 16.7156 18.7363 16.2891C18.0977 12.75 14.6484 10.875 11.25 10.875Z" stroke="#828282" stroke-width="1.2" stroke-miterlimit="10"/>
<path d="M5.625 8.0625H1.25M3.4375 5.875V10.25V5.875Z" stroke="#828282" stroke-width="1.2" stroke-linecap="round" stroke-linejoin="round"/>
</svg>
