<svg width="18" height="18" viewBox="0 0 18 18" fill="none" xmlns="http://www.w3.org/2000/svg">
<path d="M6.1875 9C6.70527 9 7.125 8.58027 7.125 8.0625C7.125 7.54473 6.70527 7.125 6.1875 7.125C5.66973 7.125 5.25 7.54473 5.25 8.0625C5.25 8.58027 5.66973 9 6.1875 9Z" fill="#828282"/>
<path d="M9.00195 14C7.22773 14 5.73555 12.8465 5.26328 11.2723C5.25007 11.2254 5.24799 11.1761 5.2572 11.1283C5.26641 11.0805 5.28666 11.0356 5.31632 10.997C5.34599 10.9584 5.38427 10.9273 5.42809 10.9061C5.47192 10.8849 5.52008 10.8743 5.56875 10.875H12.4316C12.4803 10.8743 12.5285 10.8849 12.5723 10.9061C12.6161 10.9273 12.6544 10.9584 12.6841 10.997C12.7137 11.0356 12.734 11.0805 12.7432 11.1283C12.7524 11.1761 12.7503 11.2254 12.7371 11.2723C12.2688 12.8465 10.7762 14 9.00195 14Z" fill="#828282"/>
<path d="M11.8125 9C12.3303 9 12.75 8.58027 12.75 8.0625C12.75 7.54473 12.3303 7.125 11.8125 7.125C11.2947 7.125 10.875 7.54473 10.875 8.0625C10.875 8.58027 11.2947 9 11.8125 9Z" fill="#828282"/>
<path d="M9 17.125C13.4873 17.125 17.125 13.4873 17.125 9C17.125 4.51269 13.4873 0.875 9 0.875C4.51269 0.875 0.875 4.51269 0.875 9C0.875 13.4873 4.51269 17.125 9 17.125Z" stroke="#828282" stroke-width="1.2" stroke-miterlimit="10"/>
</svg>
